<?xml version="1.0" encoding="iso-8859-1"?>
<!-- Generator: Adobe Illustrator 19.0.0, SVG Export Plug-In . SVG Version: 6.00 Build 0)  -->
<svg version="1.1" id="Capa_1" xmlns="http://www.w3.org/2000/svg" xmlns:xlink="http://www.w3.org/1999/xlink" x="0px" y="0px"
	 viewBox="0 0 512.012 512.012" style="enable-background:new 0 0 512.012 512.012;" xml:space="preserve">
<g transform="translate(-1)">
	<g transform="translate(1 1)">
		<path style="fill:#A4C2F7;" d="M478.221,206.701l-43.435,43.435L297.144,387.779c-3.845,3.852-9.065,6.016-14.507,6.016
			c-5.443,0-10.662-2.164-14.507-6.016l-35.84-35.84l-97.423-96.243c-3.852-3.845-6.016-9.064-6.016-14.507
			s2.164-10.661,6.016-14.507L315.944,45.605c3.845-3.852,9.065-6.016,14.507-6.016s10.662,2.164,14.507,6.016l0.426,0.341
			l89.828,88.648l21.675,21.76l21.333,21.333c3.852,3.845,6.016,9.064,6.016,14.507
			C484.236,197.637,482.072,202.856,478.221,206.701z"/>
		<path style="fill:#E3E7F2;" d="M453.482,184.29L272.405,365.367c-3.845,3.852-9.065,6.016-14.507,6.016
			c-5.443,0-10.662-2.164-14.507-6.016L136.063,255.696c-3.852-3.845-6.016-9.064-6.016-14.507s2.164-10.661,6.016-14.507
			L273.707,89.04l43.433-43.435c3.845-3.852,9.065-6.016,14.507-6.016s10.662,2.164,14.507,6.016l0.426,0.341l106.901,109.331
			c3.851,3.845,6.016,9.064,6.016,14.507S457.334,180.445,453.482,184.29z"/>
		<path style="fill:#FFFFFF;" d="M306.259,34.938l-43.435,43.435L125.182,216.015c-3.852,3.845-6.016,9.065-6.016,14.507
			c0,5.443,2.164,10.662,6.016,14.507l21.333,21.333c-3.852-3.845-6.016-9.065-6.016-14.507c0-5.443,2.164-10.662,6.016-14.507
			L284.158,99.706l43.435-43.435c7.437-7.446,19.297-8.072,27.477-1.45l-19.797-19.883c-3.845-3.852-9.064-6.016-14.507-6.016
			S310.105,31.086,306.259,34.938z"/>
		<g>
			<path style="fill:#A4C2F7;" d="M352.525,240.323l17.067,17.067l-80.981,80.896l-12.033,12.117l-22.954,22.869l-78.421,78.507
				l-12.544,12.459l-11.692,11.691l-12.031,12.117l-8.448,8.448c-8.043,7.936-20.97,7.936-29.013,0l-17.067-17.067
				c8.043,7.936,20.97,7.936,29.013,0l8.448-8.448l12.031-12.117l11.692-11.691l12.544-12.459l78.421-78.507l22.954-22.869
				l12.033-12.117L352.525,240.323z"/>
			<path style="fill:#A4C2F7;" d="M434.786,246.637v141.056c0,9.265-3.949,18.09-10.856,24.264
				c-6.907,6.174-16.119,9.112-25.325,8.077l-0.085-0.085c-11.612-1.314-21.636-8.734-26.283-19.456
				c2.942,1.234,6.045,2.038,9.216,2.389l0.085,0.085c9.207,1.035,18.418-1.903,25.325-8.077c6.907-6.174,10.856-15,10.856-24.264
				V229.571c0.005-16.337-6.506-32-18.09-43.52l17.067,17.067C428.28,214.637,434.791,230.301,434.786,246.637L434.786,246.637z"/>
		</g>
		<g>
			<path style="fill:#E3E7F2;" d="M417.719,229.571v141.056c0,9.265-3.948,18.09-10.856,24.264
				c-6.907,6.174-16.119,9.112-25.325,8.077l-0.085-0.085c-3.171-0.351-6.274-1.156-9.216-2.389c-1.75-4.04-2.651-8.397-2.645-12.8
				V257.389l0,0l-17.067-17.067l-80.981,80.896l-12.033,12.117l-22.954,22.869l-78.421,78.507l-12.544,12.459L133.9,458.861
				l-12.031,12.117l-8.448,8.448c-8.043,7.936-20.97,7.936-29.013,0L72.461,467.48c-3.062-3.012-5.067-6.933-5.717-11.179
				c-1.046-6.49,1.079-13.089,5.717-17.749c-5.636,5.763-14.181,7.58-21.675,4.608c-2.751-0.934-5.239-2.514-7.253-4.608
				l-17.067-17.067l-11.947-11.947c-7.935-8.043-7.935-20.97,0-29.013l8.448-8.448l12.117-12.032l11.691-11.776l12.459-12.459
				l78.507-78.421l22.87-22.955l12.117-12.032l80.896-80.981H123.319c-12.985-0.064-24.703-7.798-29.867-19.712
				c-1.233-2.942-2.038-6.046-2.389-9.216l-0.085-0.085c-1.035-9.207,1.903-18.418,8.077-25.325
				c6.174-6.907,15-10.856,24.264-10.856h141.056c16.337-0.005,32.001,6.507,43.521,18.091l15.614,15.616l43.435,43.435
				l32.683,32.683C411.213,197.57,417.724,213.234,417.719,229.571L417.719,229.571z"/>
			<path style="fill:#E3E7F2;" d="M485.474,127l-7.509,7.509c-1.921-9.972-5.164-19.643-9.643-28.757l0.085-0.085
				c18.78-18.84,23.356-47.601,11.349-71.339l5.717,5.717C509.452,64.071,509.452,102.974,485.474,127z"/>
			<path style="fill:#E3E7F2;" d="M468.407,105.667l-0.085,0.085c-6.378-13.096-14.82-25.082-25.003-35.499l-1.279-1.28
				c-17.774-18.243-40.597-30.754-65.537-35.925l7.509-7.509c1.45-1.451,2.987-2.816,4.523-4.096
				c24.458-19.988,60.076-18.218,82.431,4.096l8.789,8.789C491.762,58.065,487.187,86.827,468.407,105.667z"/>
			<path style="fill:#E3E7F2;" d="M442.04,68.973c-2.925-2.945-6.002-5.737-9.216-8.363c-16.095-13.871-35.491-23.363-56.32-27.563
				l-35.926,35.925c-7.703,7.691-12.031,18.129-12.031,29.013s4.328,21.323,12.031,29.013l26.283,26.368
				c0.234,0.251,0.492,0.48,0.769,0.683l16.383,16.384c7.69,7.703,18.128,12.032,29.013,12.032s21.323-4.329,29.013-12.032
				l35.925-35.925C472.794,109.57,460.283,86.747,442.04,68.973z"/>
		</g>
		<path style="fill:#A4C2F7;" d="M239.138,213.905l43.481-43.481c8.005-8.005,20.983-8.005,28.987,0l28.975,28.975
			c8.005,8.005,8.005,20.983,0,28.987l-43.481,43.481c-8.005,8.005-20.983,8.005-28.987,0l-28.975-28.975
			C231.133,234.887,231.133,221.909,239.138,213.905z"/>
		<g>
			<path style="fill:#FFFFFF;" d="M269.755,158.658l-17.067-17.067l-80.896,80.981l-12.117,12.033l-22.869,22.954l-78.507,78.421
				L45.84,348.525l-11.691,11.691l-12.117,12.032l-8.448,8.448c-7.936,8.043-7.936,20.97,0,29.013l17.067,17.067
				c-7.936-8.043-7.936-20.97,0-29.013l8.448-8.448l12.117-12.031l11.691-11.692l12.459-12.544l78.507-78.421l22.869-22.954
				l12.117-12.033L269.755,158.658z"/>
			<path style="fill:#FFFFFF;" d="M263.44,76.397H122.384c-9.265,0-18.09,3.949-24.264,10.856
				c-6.174,6.907-9.112,16.119-8.077,25.325l0.085,0.085c1.314,11.612,8.734,21.636,19.456,26.283
				c-1.234-2.942-2.038-6.045-2.389-9.216l-0.085-0.085c-1.035-9.207,1.903-18.418,8.077-25.325
				c6.174-6.907,15-10.856,24.264-10.856h141.056c16.337-0.005,32,6.506,43.52,18.09L306.96,94.487
				C295.44,82.903,279.777,76.392,263.44,76.397L263.44,76.397z"/>
		</g>
	</g>
	<g>
		<circle style="fill:#428DFF;" cx="151.481" cy="187.904" r="8.533"/>
		<path style="fill:#428DFF;" d="M414.038,191.975c-13.142,0.037-25.752-5.188-35.017-14.508l-43.475-43.475
			c-9.289-9.285-14.508-21.881-14.508-35.015s5.219-25.73,14.508-35.015l43.475-43.475c27.36-27.3,71.656-27.3,99.017,0
			l14.483,14.492c27.322,27.35,27.322,71.663,0,99.012l-43.467,43.475C439.788,186.786,427.179,192.01,414.038,191.975
			L414.038,191.975z M428.529,17.071c-14.043-0.025-27.518,5.547-37.442,15.483l-43.475,43.475
			c-6.088,6.085-9.508,14.34-9.508,22.948s3.42,16.863,9.508,22.948l43.475,43.475c12.841,12.267,33.059,12.267,45.9,0
			l43.467-43.475c20.656-20.686,20.656-54.193,0-74.879l-14.483-14.492C456.046,22.619,442.572,17.047,428.529,17.071z"/>
		<path style="fill:#428DFF;" d="M478.946,144.029c-4.106-0.006-7.626-2.932-8.383-6.967c-4.865-23.234-16.556-44.486-33.575-61.033
			c-16.549-17.019-37.8-28.712-61.033-33.583c-3.001-0.555-5.476-2.671-6.493-5.549c-1.016-2.878-0.418-6.079,1.568-8.395
			c1.986-2.317,5.059-3.396,8.058-2.831c26.616,5.509,50.979,18.843,69.967,38.292c19.447,18.988,32.78,43.352,38.292,69.967
			c0.86,4.633-2.194,9.086-6.825,9.954C480.002,143.981,479.474,144.03,478.946,144.029z"/>
		<path style="fill:#428DFF;" d="M116.963,512c-7.698,0.027-15.088-3.024-20.525-8.475l-28.983-28.983
			c-11.317-11.344-11.317-29.707,0-41.05l108.683-108.687c3.332-3.332,8.735-3.332,12.067,0c3.332,3.332,3.332,8.735,0,12.067
			L79.521,445.558c-4.658,4.677-4.658,12.24,0,16.917l28.983,28.979c4.748,4.483,12.169,4.483,16.917,0L364.529,252.35
			c2.44-2.441,6.11-3.171,9.299-1.85c3.189,1.321,5.268,4.432,5.268,7.883v130.275c-0.006,12.24,9.214,22.517,21.383,23.834
			c0.311,0.036,0.619,0.087,0.925,0.154c6.506,0.51,12.936-1.67,17.792-6.029c5.113-4.57,8.037-11.101,8.042-17.958v-141
			c0.038-14.078-5.559-27.586-15.542-37.513l-32.675-32.679c-2.155-2.156-2.997-5.297-2.208-8.242
			c0.789-2.944,3.089-5.244,6.033-6.033c2.944-0.789,6.086,0.053,8.242,2.208l32.675,32.679
			c13.195,13.119,20.592,30.972,20.542,49.579v141c0.008,11.697-4.97,22.842-13.684,30.644c-8.715,7.802-20.341,11.52-31.966,10.223
			c-0.371-0.041-0.738-0.108-1.1-0.2c-20.355-2.746-35.538-20.127-35.525-40.667V278.983L137.488,503.521
			C132.053,508.976,124.662,512.029,116.963,512L116.963,512z"/>
		<path style="fill:#428DFF;" d="M370.554,368.354c-4.528-0.003-8.266-3.543-8.514-8.065c-0.248-4.522,3.08-8.449,7.581-8.948
			l65.208-7.246c3.029-0.336,6.008,0.969,7.814,3.424c1.806,2.455,2.165,5.688,0.942,8.479c-1.223,2.792-3.843,4.719-6.872,5.055
			l-65.208,7.246C371.189,368.336,370.872,368.354,370.554,368.354L370.554,368.354z"/>
		<path style="fill:#428DFF;" d="M169.713,467.771c-3.411-0.002-6.494-2.033-7.842-5.167c-5.283-11.793-12.731-22.491-21.958-31.538
			c-9.048-9.229-19.747-16.679-31.542-21.962c-2.814-1.197-4.772-3.808-5.134-6.844c-0.361-3.036,0.929-6.034,3.384-7.858
			c2.454-1.824,5.697-2.195,8.5-0.973c13.779,6.141,26.281,14.815,36.858,25.571c10.756,10.579,19.431,23.083,25.575,36.863
			c1.13,2.638,0.86,5.667-0.718,8.063C175.258,466.322,172.582,467.767,169.713,467.771L169.713,467.771z"/>
		<path style="fill:#428DFF;" d="M145.946,491.529c-2.264,0.003-4.435-0.897-6.033-2.5l-57.967-57.963
			c-3.332-3.332-3.332-8.735,0-12.067c3.332-3.332,8.735-3.332,12.067,0l57.967,57.962c2.44,2.44,3.169,6.11,1.849,9.298
			C152.508,489.449,149.397,491.528,145.946,491.529L145.946,491.529z"/>
		<path style="fill:#428DFF;" d="M58.996,454.037c-7.699,0.027-15.088-3.024-20.525-8.475L9.487,416.575
			c-11.317-11.343-11.317-29.706,0-41.05l224.542-224.542H124.354c-20.551,0.017-37.941-15.182-40.675-35.55
			c-0.091-0.355-0.158-0.715-0.2-1.079c-1.292-11.624,2.429-23.249,10.232-31.962s18.947-13.69,30.643-13.684h141
			c18.608-0.048,36.461,7.348,49.583,20.542l32.675,32.675c3.332,3.332,3.332,8.735,0,12.067c-3.332,3.332-8.735,3.332-12.067,0
			l-32.675-32.676c-9.929-9.982-23.438-15.578-37.517-15.542h-141c-6.86,0.003-13.394,2.928-17.967,8.042
			c-4.383,4.845-6.564,11.289-6.025,17.8c0.069,0.304,0.122,0.611,0.158,0.921c1.317,12.168,11.594,21.387,23.834,21.379h130.274
			c3.451,0,6.563,2.079,7.883,5.268c1.321,3.189,0.59,6.859-1.85,9.299L21.554,387.592c-4.658,4.677-4.658,12.24,0,16.917
			l28.983,28.983c4.748,4.483,12.169,4.483,16.917,0l108.683-108.687c3.332-3.332,8.735-3.332,12.067,0
			c3.332,3.332,3.332,8.735,0,12.067L79.521,445.558C74.087,451.013,66.696,454.067,58.996,454.037z"/>
		<path style="fill:#428DFF;" d="M153.196,150.983c-0.317,0.001-0.635-0.017-0.95-0.054c-4.683-0.521-8.059-4.737-7.542-9.421
			l7.25-65.208c0.533-4.674,4.747-8.036,9.422-7.517c4.676,0.519,8.05,4.723,7.544,9.4l-7.25,65.208
			C161.191,147.711,157.542,150.979,153.196,150.983z"/>
		<path style="fill:#428DFF;" d="M111.746,409.804c-3.411-0.002-6.494-2.033-7.842-5.167c-5.279-11.795-12.728-22.493-21.958-31.538
			c-9.047-9.23-19.746-16.68-31.542-21.963c-2.81-1.199-4.765-3.809-5.125-6.843c-0.36-3.034,0.93-6.029,3.381-7.853
			c2.452-1.823,5.691-2.197,8.493-0.979c13.779,6.141,26.282,14.815,36.858,25.571c10.758,10.578,19.433,23.082,25.575,36.863
			c1.13,2.638,0.86,5.667-0.718,8.063C117.291,408.356,114.615,409.8,111.746,409.804L111.746,409.804z"/>
		<path style="fill:#428DFF;" d="M87.979,433.566c-2.264,0.003-4.435-0.897-6.033-2.5l-57.967-57.967
			c-3.332-3.332-3.332-8.735,0-12.067s8.735-3.332,12.067,0L94.013,419c2.44,2.44,3.169,6.11,1.849,9.298
			C94.541,431.486,91.431,433.565,87.979,433.566L87.979,433.566z"/>
		<path style="fill:#428DFF;" d="M283.613,287.396c-7.697,0.012-15.082-3.041-20.525-8.483l-28.983-28.988l0,0
			c-11.317-11.344-11.317-29.707,0-41.05l43.475-43.475c11.486-10.967,29.564-10.967,41.05,0l28.983,28.983
			c11.317,11.343,11.317,29.706,0,41.05l-43.475,43.475C298.697,284.355,291.311,287.409,283.613,287.396L283.613,287.396z
			 M246.171,237.858l28.984,28.984c4.677,4.658,12.24,4.658,16.917,0l43.475-43.475c4.658-4.677,4.658-12.24,0-16.917
			l-28.983-28.983c-4.734-4.517-12.182-4.517-16.917,0l-43.475,43.475C241.512,225.618,241.512,233.181,246.171,237.858
			L246.171,237.858z"/>
		<path style="fill:#428DFF;" d="M283.613,403.317c-7.699,0.027-15.089-3.024-20.525-8.475l-14.492-14.496
			c-3.332-3.332-3.332-8.735,0-12.067c3.332-3.332,8.735-3.332,12.067,0l14.492,14.492c4.748,4.483,12.169,4.483,16.917,0
			l72.458-72.458c2.156-2.156,5.297-2.997,8.242-2.208c2.944,0.789,5.244,3.089,6.033,6.033c0.789,2.944-0.053,6.086-2.208,8.242
			l-72.458,72.458C298.703,400.292,291.312,403.346,283.613,403.317z"/>
		<path style="fill:#428DFF;" d="M175.521,172.204c-3.449,0.001-6.559-2.073-7.883-5.258c-1.324-3.184-0.601-6.853,1.833-9.296
			l21.158-21.25c3.325-3.341,8.73-3.355,12.071-0.029c3.341,3.325,3.355,8.73,0.029,12.071l-21.158,21.25
			C179.971,171.303,177.792,172.208,175.521,172.204z"/>
		<path style="fill:#428DFF;" d="M138.738,266.921c-2.264,0.003-4.435-0.897-6.033-2.5l-14.5-14.504
			c-5.453-5.445-8.517-12.835-8.517-20.542c0-7.706,3.064-15.096,8.517-20.542l2.975-2.979c3.334-3.313,8.719-3.307,12.046,0.013
			s3.344,8.705,0.037,12.046l-2.983,2.988c-2.273,2.259-3.543,5.337-3.525,8.542c-0.009,3.146,1.246,6.164,3.483,8.375
			l14.533,14.537c2.44,2.441,3.169,6.11,1.849,9.298C145.299,264.841,142.188,266.92,138.738,266.921L138.738,266.921z"/>
		<path style="fill:#428DFF;" d="M435.771,259.671c-3.451-0.001-6.562-2.08-7.882-5.268c-1.32-3.188-0.591-6.858,1.849-9.298
			l43.475-43.475c4.658-4.677,4.658-12.24,0-16.917l-21.733-21.738c-3.332-3.332-3.332-8.735,0-12.067
			c3.332-3.332,8.735-3.332,12.067,0l21.733,21.737c11.317,11.344,11.317,29.707,0,41.05l-43.475,43.475
			C440.206,258.774,438.035,259.673,435.771,259.671L435.771,259.671z"/>
		<path style="fill:#428DFF;" d="M261.879,85.775c-3.451-0.001-6.562-2.08-7.882-5.268c-1.32-3.188-0.591-6.858,1.849-9.298
			l43.475-43.475c11.496-10.933,29.546-10.933,41.042,0l21.742,21.737c3.332,3.332,3.332,8.735,0,12.067
			c-3.332,3.332-8.735,3.332-12.067,0L328.296,39.8c-4.745-4.483-12.164-4.483-16.908,0l-43.475,43.475
			C266.314,84.878,264.143,85.778,261.879,85.775z"/>
		<path style="fill:#428DFF;" d="M435.788,129.279c-0.573-0.015-1.144-0.072-1.708-0.171l-1.542-0.513
			c-0.508-0.254-1.017-0.512-1.533-0.767c-0.446-0.346-0.872-0.717-1.275-1.112c-3.3-3.331-3.3-8.698,0-12.029
			c3.386-3.158,8.639-3.158,12.025,0c0.398,0.403,0.771,0.83,1.117,1.279c0.285,0.467,0.541,0.952,0.767,1.45
			c0.244,0.514,0.416,1.059,0.508,1.621c0.099,0.564,0.158,1.135,0.175,1.708c-0.017,0.544-0.076,1.086-0.175,1.621
			c-0.081,0.564-0.252,1.112-0.508,1.621c-0.208,0.507-0.464,0.993-0.767,1.45c-0.3,0.484-0.677,0.916-1.117,1.279
			c-0.365,0.435-0.795,0.81-1.275,1.112c-0.425,0.254-0.942,0.513-1.45,0.767c-0.517,0.171-1.025,0.341-1.625,0.513
			C436.87,129.206,436.33,129.263,435.788,129.279z"/>
		<path style="fill:#428DFF;" d="M406.788,100.267c-2.264,0.003-4.435-0.897-6.033-2.5l-14.492-14.491
			c-3.332-3.332-3.332-8.735,0-12.067c3.332-3.332,8.735-3.332,12.067,0L412.821,85.7c2.44,2.44,3.169,6.11,1.849,9.298
			C413.349,98.187,410.239,100.266,406.788,100.267L406.788,100.267z"/>
		<path style="fill:#428DFF;" d="M283.613,353.862c-2.264,0.003-4.435-0.897-6.033-2.5L161.646,235.433
			c-2.156-2.156-2.997-5.297-2.208-8.242c0.789-2.944,3.089-5.244,6.033-6.033c2.944-0.789,6.086,0.053,8.242,2.208l115.933,115.929
			c2.44,2.44,3.169,6.11,1.849,9.298C290.174,351.782,287.064,353.861,283.613,353.862L283.613,353.862z"/>
	</g>
</g>
<g>
</g>
<g>
</g>
<g>
</g>
<g>
</g>
<g>
</g>
<g>
</g>
<g>
</g>
<g>
</g>
<g>
</g>
<g>
</g>
<g>
</g>
<g>
</g>
<g>
</g>
<g>
</g>
<g>
</g>
</svg>
